<?xml version="1.0" encoding="UTF-8"?>
<svg version="1.1" xmlns="http://www.w3.org/2000/svg" width="512" height="512">
<path d="M0 0 C9.79536303 8.14403746 12.04395788 21.07094523 14.9375 32.875 C15.10986176 33.57285614 15.28222351 34.27071228 15.45980835 34.98971558 C32.51566565 104.36685682 34.71782192 181.14493952 -2.56591797 244.66796875 C-8.3217268 253.99292121 -14.77569239 262.76059807 -22 271 C-22.72703125 271.83660156 -23.4540625 272.67320312 -24.203125 273.53515625 C-38.41122976 289.60621181 -57.22935474 309.9271614 -80.2421875 311.37109375 C-115.46980251 312.32134232 -150.80091038 290.33289567 -175.83984375 267.0078125 C-177.86538639 265.12512006 -179.94704391 263.34262939 -182.0625 261.5625 C-197.98628191 247.57367964 -209.61108806 229.25163286 -220 211 C-220.37463379 210.3591748 -220.74926758 209.71834961 -221.13525391 209.05810547 C-241.16029255 174.78719232 -250.62292757 133.94344705 -256 95 C-256.11859375 94.15920898 -256.2371875 93.31841797 -256.359375 92.45214844 C-257.68624749 82.75729139 -258.22930761 73.09544663 -258.375 63.3125 C-258.40110352 62.30823975 -258.42720703 61.30397949 -258.45410156 60.26928711 C-258.47176152 52.7619112 -256.97714 47.60189315 -252.17578125 41.79296875 C-244.98746525 35.59926251 -238.4933155 33.47640481 -229 34 C-225.38127795 34.3854984 -221.78685143 34.90269657 -218.1875 35.4375 C-204.54101378 37.43338217 -191.2171653 38.24027628 -177.4375 38.25 C-176.57517761 38.25067474 -175.71285522 38.25134949 -174.82440186 38.25204468 C-160.04436575 38.2337589 -145.60210533 37.43447592 -131 35 C-129.4521582 34.74259033 -129.4521582 34.74259033 -127.87304688 34.47998047 C-92.31324326 28.35067975 -58.74979244 16.00717368 -27.37939453 -1.79638672 C-18.76012188 -6.15643332 -8.1049011 -4.89613479 0 0 Z M-82 106 C-85.96873002 111.26218252 -89 116.29732006 -89 123 C-88.34 123.66 -87.68 124.32 -87 125 C-81.29885256 124.75304436 -77.3577942 122.86732871 -72.5 120.1875 C-54.35658948 110.83393508 -35.08209613 109.87284919 -15.03442383 113.08520508 C-12.90095178 113.18970745 -12.90095178 113.18970745 -11.2331543 111.65893555 C-9.79504973 110.04255621 -9.79504973 110.04255621 -9.875 107.75 C-13.6309325 98.56883166 -23.39981576 94.62422343 -32 91 C-50.60993374 84.5690443 -69.10020198 92.20377534 -82 106 Z M-203 129 C-205.50740454 132.8133444 -207.92114412 136.53946723 -209 141 C-208.12350109 143.93349047 -208.12350109 143.93349047 -206 146 C-202.8018736 146.69478368 -201.32885582 146.17475187 -198.44921875 144.64453125 C-197.53785156 144.03996094 -196.62648438 143.43539062 -195.6875 142.8125 C-185.92445969 136.84081405 -173.9243735 132.88081833 -162.4296875 132.8671875 C-161.3675 132.86589844 -160.3053125 132.86460937 -159.2109375 132.86328125 C-158.11007813 132.86714844 -157.00921875 132.87101562 -155.875 132.875 C-154.79734375 132.87113281 -153.7196875 132.86726563 -152.609375 132.86328125 C-145.68610525 132.87162254 -138.88182763 133.24490819 -132 134 C-131.01 132.35 -130.02 130.7 -129 129 C-133.96982301 120.30280972 -142.4461863 115.08897208 -151.85546875 112.08984375 C-171.5602061 106.72036526 -190.09520957 112.98103272 -203 129 Z M-40.7109375 185.1953125 C-41.454646 185.66106689 -42.19835449 186.12682129 -42.96459961 186.60668945 C-43.76003174 187.10773193 -44.55546387 187.60877441 -45.375 188.125 C-74.06923752 205.83139595 -107.14702964 213.94630804 -140.609375 206.16015625 C-142.58592134 205.62668541 -144.56026049 205.08489874 -146.53125 204.53125 C-150.0086216 203.78295485 -152.57538977 204.14384744 -156 205 C-157.06043651 207.09495303 -157.06043651 207.09495303 -157 210 C-149.68023118 224.04772655 -134.63231974 233.82636902 -120.18359375 239 C-103.10801464 244.36361749 -85.33191765 242.82011586 -69.015625 235.578125 C-51.229662 226.27044488 -39.7852343 212.55114746 -32.77734375 193.83984375 C-32.0122727 191.04483546 -31.73423652 188.87826868 -32 186 C-33.27159652 184.14397385 -33.27159652 184.14397385 -35 183 C-37.55643609 183 -38.55686588 183.83087641 -40.7109375 185.1953125 Z " fill="#5900FF" transform="translate(258,25)"/>
<path d="M0 0 C6.76058766 2.57654774 13.49170932 5.1969982 20.1875 7.9375 C54.17274643 21.58418696 90.34023006 28.23516097 126.9375 28.1875 C127.65522583 28.18756042 128.37295166 28.18762085 129.11242676 28.18768311 C143.96197409 28.16997664 158.57677547 27.25260583 173.25 24.875 C182.55041378 23.3753234 190.67476063 22.90180781 199 28 C203.92603181 32.4153061 208.48658523 37.19631953 209.21582031 44.01928711 C212.69700133 111.83863688 188.13410432 190.0557218 143 241 C140.39852422 243.73814752 137.72393424 246.38430156 135 249 C134.154375 249.845625 133.30875 250.69125 132.4375 251.5625 C131.633125 252.366875 130.82875 253.17125 130 254 C129.53722656 254.49757813 129.07445312 254.99515625 128.59765625 255.5078125 C109.99584142 275.06473274 83.33221699 288.99514074 57.97265625 297.34814453 C56.29572132 297.90228021 54.63071492 298.49230739 52.96875 299.08984375 C39.53945979 303.47863287 24.86226282 301.87345736 12.328125 295.6796875 C1.34866001 289.43980522 -7.85967096 280.60800874 -17 272 C-17.66 271.38253906 -18.32 270.76507813 -19 270.12890625 C-24.14608943 265.16150048 -28.64224487 259.66144194 -33 254 C-33.45536133 253.40993164 -33.91072266 252.81986328 -34.37988281 252.21191406 C-53.39478624 227.24115614 -64.59937605 198.89414376 -71.203125 168.40234375 C-71.96027608 165.16960556 -72.88907958 162.04402991 -73.875 158.875 C-75.44759898 153.11283479 -76.69692447 147.85928935 -75 142 C-70.37637061 134.82815521 -63.71431042 129.36222956 -57.29322815 123.84674072 C-52.78601614 119.9366917 -49.13848627 115.6775993 -45.625 110.875 C-44.86630615 109.84947021 -44.86630615 109.84947021 -44.09228516 108.80322266 C-40.39281068 103.71006791 -36.91165923 98.46939126 -33.5859375 93.125 C-32 91 -32 91 -29 90 C-28.59910156 90.50789063 -28.19820313 91.01578125 -27.78515625 91.5390625 C-19.93641893 101.04297572 -10.7628007 105.93816454 1.1875 108.75 C14.9428515 109.97269791 27.85061084 106.32285033 38.5625 97.4375 C41.1907377 95.1477074 42.71104548 93.55907402 43 90 C42.34 89.01 41.68 88.02 41 87 C40.34153076 87.06856201 39.68306152 87.13712402 39.00463867 87.20776367 C15.86503762 89.48242128 -3.43459264 88.43950784 -24 77 C-23.73372803 76.38817871 -23.46745605 75.77635742 -23.19311523 75.14599609 C-14.02061989 53.94286611 -7.10698573 33.10443351 -2.52099609 10.46191406 C-1.77729989 6.94765328 -0.89986052 3.47728905 0 0 Z M86 95 C83.66376157 96.87496819 83.66376157 96.87496819 83.9375 99.9375 C85.66151673 109.44931645 93.38062515 117.60146619 101 123 C112.90950217 130.13934109 124.27261893 132.85867558 137.9375 129.875 C147.47835391 127.24177331 157.30941694 122.43545254 163 114 C163.21664456 110.59284767 163.21664456 110.59284767 162 108 C157.58287094 107.22050664 154.34725591 107.09297742 150 108 C131.27753595 109.27035905 115.06239791 107.92991359 98.48803711 98.73046875 C94.34089153 96.45704986 90.829129 95.208924 86 95 Z M-11 196 C-11.67160156 196.67546875 -12.34320313 197.3509375 -13.03515625 198.046875 C-16.24245633 201.4740609 -18.10866813 204.21860208 -18 209 C-16.82063776 210.79399531 -16.82063776 210.79399531 -15 212 C-13.06835718 212.03164114 -13.06835718 212.03164114 -10.9375 211.375 C-10.04289062 211.16875 -9.14828125 210.9625 -8.2265625 210.75 C-7.16179687 210.5025 -6.09703125 210.255 -5 210 C27.75599617 203.09001298 61.24349079 207.24778673 90 225 C92.67315027 226.89128023 95.29687576 228.79942495 97.8515625 230.84765625 C99.98472942 232.23847136 99.98472942 232.23847136 102.6484375 231.80859375 C105.15272646 231.13977478 105.15272646 231.13977478 107 229 C107.02831734 215.29440529 96.69339805 202.08503304 87.796875 192.66796875 C73.73567388 179.00252992 55.89690564 173.32719762 36.55932617 173.6015625 C17.45531049 174.24283567 2.05865844 182.39128886 -11 196 Z " fill="#5900FF" transform="translate(303,190)"/>
</svg>
